<svg width="70" height="16" viewBox="0 0 70 16" fill="none" xmlns="http://www.w3.org/2000/svg">
<path d="M22.6924 1.55429V6.92571L21.661 8.04571L22.6924 9.28V14.6514L20.8709 16H0L0.987582 14.6514V1.34857L0 0H20.6953L22.6924 1.55429ZM18.0618 12.5486V9.85143H4.16979L4.82818 10.24V12.5486H18.0618ZM18.0618 6.28571V3.56571H4.16979L4.82818 3.93143V6.28571H18.0618Z" fill="#2DB97C"/>
<path d="M46.7819 14.6514L47.7695 16H42.0415L42.9632 14.7429V9.98857H34.492L29.971 14.6514L30.9586 16H23.3433L24.6162 14.6743V14.6514H24.6381L37.4108 1.34857L36.4232 0H47.7695L46.7819 1.34857V14.6514ZM38.3326 6.01143H42.9632V3.54286H39.6713L40.3297 3.93143L38.3326 6.01143Z" fill="#2DB97C"/>
<path d="M70 0V4.57143L68.7052 3.56571V3.52H61.1557V14.6514L62.1213 16H56.3933L57.359 14.6743V3.52H49.8094V3.56571L48.5146 4.57143V0.0685719V0H70Z" fill="#2DB97C"/>
</svg>
