<svg width="123" height="16" viewBox="0 0 123 16" fill="none" xmlns="http://www.w3.org/2000/svg">
<path d="M20.9934 11.4286V16H1.93447L0 14.6057V1.55429L1.93447 0H20.9494V0.0457151L20.9934 0V4.54857L19.7184 3.54286H3.18748L3.82498 3.93143V12.4571H19.7184L20.9934 11.4286Z" fill="white"/>
<path d="M41.9861 0L43.9206 1.39429V14.4457L41.9861 16H24.8617L22.9272 14.6057V1.55429L24.8617 0H41.9861ZM40.1176 12.4571V3.54286L26.1367 3.49714L26.7522 3.93143V12.4571H40.1176Z" fill="white"/>
<path d="M66.0308 0L67.9873 1.55429V14.6057L66.0528 16H45.4111L46.4003 14.6743V1.32571L45.4111 0H66.0308ZM64.1623 12.4571V3.54286H49.5878L50.2253 3.93143V12.4571H64.1623Z" fill="white"/>
<path d="M74.2468 14.6514L75.1921 16H72.0705H70.4438H69.4546L70.4438 14.6514V1.34857L69.4986 0H70.4438H74.2468H75.236L74.2468 1.34857V14.6514Z" fill="white"/>
<path d="M98.9009 1.32571V14.6743L99.8241 16H91.8444L82.0622 3.52L80.3036 3.49714L81.1389 3.93143V14.6743L82.0622 16H76.3247L77.3139 14.6514V1.34857L76.3906 0H84.2824L94.1306 12.48L95.0759 12.4571V1.34857L94.1306 0H99.8681L98.9009 1.32571Z" fill="white"/>
<path d="M123 0V4.54857L121.703 3.54286H105.194L105.81 3.93143V12.4571H119.175V9.78286H116.185L114.91 10.8114V9.78286V6.17143H123V14.4457L121.066 16H103.919L101.369 14.6057V1.55429L103.919 0H123Z" fill="white"/>
</svg>
