<svg width="24" height="24" viewBox="0 0 24 24" fill="none" xmlns="http://www.w3.org/2000/svg">
<g clip-path="url(#clip0_3_13)">
<path d="M8.70101 18.5611C8.70101 18.5611 7.78301 19.0951 9.35401 19.2751C9.92901 19.3601 10.593 19.4091 11.267 19.4091C12.351 19.4091 13.405 19.2841 14.416 19.0461L14.323 19.0641C14.697 19.2921 15.132 19.5091 15.585 19.6881L15.644 19.7081C10.946 21.7221 5.01101 19.5911 8.70201 18.5601L8.70101 18.5611Z" fill="white"/>
<path d="M8.12699 15.9331C8.12699 15.9331 7.09799 16.6951 8.66899 16.8571C9.35599 16.9431 10.151 16.9931 10.958 16.9931C12.419 16.9931 13.842 16.8311 15.21 16.5251L15.081 16.5491C15.356 16.8071 15.685 17.0121 16.049 17.1451L16.069 17.1511C10.389 18.8121 4.06099 17.2821 8.12699 15.9331V15.9331Z" fill="white"/>
<path d="M12.966 11.4749C14.124 12.8079 12.662 14.0069 12.662 14.0069C12.662 14.0069 15.601 12.4869 14.252 10.5889C12.991 8.81688 12.024 7.93588 17.258 4.90088C17.258 4.90088 9.042 6.95288 12.966 11.4749V11.4749Z" fill="#FF2323"/>
<path d="M19.18 20.5051C19.18 20.5051 19.858 21.0651 18.433 21.4971C15.721 22.3191 7.146 22.5671 4.763 21.5301C3.907 21.1571 5.513 20.6401 6.017 20.5321C6.249 20.4731 6.516 20.4391 6.791 20.4391H6.848H6.845C5.893 19.7681 0.689998 21.7571 4.205 22.3251C13.784 23.8791 21.667 21.6251 19.183 20.5051H19.18Z" fill="white"/>
<path d="M9.142 13.2101C9.142 13.2101 4.78 14.2461 7.597 14.6221C8.356 14.6851 9.241 14.7201 10.133 14.7201C11.272 14.7201 12.397 14.6621 13.505 14.5491L13.366 14.5611C15.171 14.4091 16.984 14.0811 16.984 14.0811C16.559 14.2671 16.199 14.4631 15.858 14.6861L15.887 14.6681C11.457 15.8331 2.901 15.2911 5.364 14.0991C6.45 13.5361 7.736 13.2061 9.098 13.2061H9.144H9.142V13.2101Z" fill="white"/>
<path d="M16.966 17.5849C21.468 15.2449 19.387 12.9969 17.933 13.2989C17.734 13.3359 17.561 13.3839 17.394 13.4449L17.417 13.4379C17.512 13.3039 17.643 13.2009 17.796 13.1429L17.802 13.1409C20.676 12.1309 22.888 16.1219 16.874 17.7009C16.911 17.6679 16.941 17.6289 16.963 17.5859L16.964 17.5839L16.966 17.5849Z" fill="white"/>
<path d="M14.252 2.34377e-05C14.252 2.34377e-05 16.746 2.49402 11.886 6.33002C7.98999 9.40702 10.997 11.161 11.886 13.166C9.61199 11.114 7.94299 9.30802 9.06199 7.62602C10.706 5.15802 15.259 3.96202 14.252 -0.000976562V2.34377e-05Z" fill="#FF2323"/>
<path d="M9.585 23.9251C13.905 24.2021 20.545 23.7711 20.705 21.7271C20.705 21.7271 20.403 22.5021 17.133 23.1181C15.327 23.4441 13.248 23.6301 11.125 23.6301C9.386 23.6301 7.677 23.5051 6.004 23.2641L6.195 23.2871C6.195 23.2871 6.748 23.7451 9.588 23.9271L9.585 23.9251Z" fill="white"/>
</g>
<defs>
<clipPath id="clip0_3_13">
<rect width="24" height="24" fill="white"/>
</clipPath>
</defs>
</svg>
