<svg width="24" height="24" viewBox="0 0 24 24" fill="none" xmlns="http://www.w3.org/2000/svg">
<path d="M11.9138 1.57492C6.58875 1.57492 6.9255 3.87742 6.9255 3.87742V6.26992H11.9895V7.01992H4.90875C4.90875 7.01992 1.5 6.59992 1.5 12.0037C1.5 17.4074 4.50975 17.1877 4.50975 17.1877H6.2475V14.6669C6.2475 14.6669 6.15 11.6572 9.1725 11.6572H14.244C14.244 11.6572 17.073 11.7022 17.073 8.91817V4.34992C17.073 4.34992 17.502 1.56592 11.9415 1.56592L11.9138 1.57492ZM9.11475 3.17767C9.29478 3.17313 9.47211 3.22207 9.62432 3.31832C9.77654 3.41457 9.89679 3.55379 9.96987 3.71838C10.043 3.88297 10.0656 4.06554 10.0349 4.24299C10.0042 4.42045 9.92161 4.58482 9.79751 4.71532C9.67341 4.84582 9.51339 4.93659 9.3377 4.97614C9.16201 5.0157 8.97854 5.00227 8.81049 4.93754C8.64243 4.87282 8.49734 4.75972 8.39357 4.61253C8.2898 4.46535 8.23201 4.2907 8.2275 4.11067V4.09567C8.2275 3.9761 8.25105 3.8577 8.29681 3.74723C8.34256 3.63677 8.40963 3.53639 8.49418 3.45185C8.57873 3.3673 8.6791 3.30023 8.78957 3.25448C8.90003 3.20872 9.01843 3.18517 9.138 3.18517L9.11475 3.17767Z" fill="url(#paint0_linear_3_10)"/>
<path d="M12.0637 22.4326C17.3887 22.4326 17.052 20.1226 17.052 20.1226V17.7376H11.9887V16.9876H19.0912C19.0912 16.9876 22.5 17.3686 22.5 11.9963C22.5 6.62408 19.4902 6.81233 19.4902 6.81233H17.73V9.30008C17.73 9.30008 17.8275 12.3098 14.805 12.3098H9.73125C9.73125 12.3098 6.9 12.2671 6.9 15.0511V19.6501C6.9 19.6501 6.471 22.4341 12.0315 22.4341H12.0615L12.0637 22.4326ZM14.8627 20.8223C14.6827 20.8269 14.5054 20.7779 14.3532 20.6817C14.201 20.5854 14.0807 20.4462 14.0076 20.2816C13.9345 20.117 13.9119 19.9345 13.9426 19.757C13.9733 19.5796 14.0559 19.4152 14.18 19.2847C14.3041 19.1542 14.4641 19.0634 14.6398 19.0239C14.8155 18.9843 14.999 18.9977 15.167 19.0625C15.3351 19.1272 15.4802 19.2403 15.5839 19.3875C15.6877 19.5346 15.7455 19.7093 15.75 19.8893V19.9118C15.75 20.1533 15.6541 20.3849 15.4833 20.5557C15.3126 20.7264 15.081 20.8223 14.8395 20.8223H14.862H14.8627Z" fill="url(#paint1_linear_3_10)"/>
<defs>
<linearGradient id="paint0_linear_3_10" x1="3.57537" y1="3.61709" x2="13.5404" y2="13.5595" gradientUnits="userSpaceOnUse">
<stop stop-color="#387EB8"/>
<stop offset="1" stop-color="#366994"/>
</linearGradient>
<linearGradient id="paint1_linear_3_10" x1="9.47062" y1="10.094" x2="20.8558" y2="20.0334" gradientUnits="userSpaceOnUse">
<stop stop-color="#FFE052"/>
<stop offset="1" stop-color="#FFC331"/>
</linearGradient>
</defs>
</svg>
