<svg width="20" height="22" viewBox="0 0 20 22" fill="none" xmlns="http://www.w3.org/2000/svg">
<path d="M18.5715 9.71422H16.7501V3.71422C16.7501 1.82047 15.2153 0.285645 13.3215 0.285645H6.67868C4.78493 0.285645 3.2501 1.82047 3.2501 3.71422V9.71422H1.42868C0.954569 9.71422 0.571533 10.0973 0.571533 10.5714V20.8571C0.571533 21.3312 0.954569 21.7142 1.42868 21.7142H18.5715C19.0456 21.7142 19.4287 21.3312 19.4287 20.8571V10.5714C19.4287 10.0973 19.0456 9.71422 18.5715 9.71422ZM5.17868 3.71422C5.17868 2.88654 5.851 2.21422 6.67868 2.21422H13.3215C14.1492 2.21422 14.8215 2.88654 14.8215 3.71422V9.71422H5.17868V3.71422ZM17.5001 19.7856H2.5001V11.6428H17.5001V19.7856ZM9.2501 16.0624V17.4821C9.2501 17.5999 9.34653 17.6964 9.46439 17.6964H10.5358C10.6537 17.6964 10.7501 17.5999 10.7501 17.4821V16.0624C10.9712 15.9037 11.1362 15.6789 11.2215 15.4204C11.3067 15.1619 11.3076 14.883 11.2243 14.6239C11.1409 14.3648 10.9774 14.1388 10.7575 13.9785C10.5375 13.8182 10.2723 13.7318 10.0001 13.7318C9.72791 13.7318 9.46274 13.8182 9.24276 13.9785C9.02277 14.1388 8.85933 14.3648 8.77595 14.6239C8.69256 14.883 8.69355 15.1619 8.77876 15.4204C8.86396 15.6789 9.029 15.9037 9.2501 16.0624Z" fill="white"/>
</svg>
