<svg width="22" height="22" viewBox="0 0 22 22" fill="none" xmlns="http://www.w3.org/2000/svg">
<path d="M20.2812 17.7394C19.7759 16.5425 19.0427 15.4553 18.1223 14.5385C17.2047 13.6189 16.1177 12.8858 14.9214 12.3795C14.9107 12.3742 14.9 12.3715 14.8892 12.3661C16.558 11.1608 17.6428 9.19739 17.6428 6.98221C17.6428 3.31257 14.6696 0.339355 11 0.339355C7.33032 0.339355 4.35711 3.31257 4.35711 6.98221C4.35711 9.19739 5.44193 11.1608 7.11068 12.3688C7.09996 12.3742 7.08925 12.3769 7.07853 12.3822C5.87853 12.8885 4.80175 13.6144 3.87764 14.5411C2.95811 15.4587 2.22497 16.5457 1.71871 17.742C1.22136 18.9132 0.953128 20.1689 0.928534 21.4411C0.927819 21.4697 0.932833 21.4982 0.943282 21.5248C0.95373 21.5514 0.969401 21.5757 0.989371 21.5961C1.00934 21.6166 1.03321 21.6329 1.05956 21.644C1.08591 21.6551 1.11422 21.6608 1.14282 21.6608H2.74996C2.86782 21.6608 2.96157 21.567 2.96425 21.4519C3.01782 19.384 3.84818 17.4474 5.31603 15.9795C6.83478 14.4608 8.85175 13.6251 11 13.6251C13.1482 13.6251 15.1651 14.4608 16.6839 15.9795C18.1517 17.4474 18.9821 19.384 19.0357 21.4519C19.0384 21.5697 19.1321 21.6608 19.25 21.6608H20.8571C20.8857 21.6608 20.914 21.6551 20.9404 21.644C20.9667 21.6329 20.9906 21.6166 21.0106 21.5961C21.0305 21.5757 21.0462 21.5514 21.0566 21.5248C21.0671 21.4982 21.0721 21.4697 21.0714 21.4411C21.0446 20.1608 20.7794 18.9152 20.2812 17.7394ZM11 11.5894C9.7705 11.5894 8.61336 11.1099 7.74282 10.2394C6.87228 9.36882 6.39282 8.21168 6.39282 6.98221C6.39282 5.75275 6.87228 4.59561 7.74282 3.72507C8.61336 2.85453 9.7705 2.37507 11 2.37507C12.2294 2.37507 13.3866 2.85453 14.2571 3.72507C15.1276 4.59561 15.6071 5.75275 15.6071 6.98221C15.6071 8.21168 15.1276 9.36882 14.2571 10.2394C13.3866 11.1099 12.2294 11.5894 11 11.5894Z" fill="white"/>
</svg>
